<?xml version="1.0" standalone="no"?>
<!DOCTYPE svg PUBLIC "-//W3C//DTD SVG 20010904//EN"
 "http://www.w3.org/TR/2001/REC-SVG-20010904/DTD/svg10.dtd">
<svg version="1.0" xmlns="http://www.w3.org/2000/svg"
 width="512.000000pt" height="512.000000pt" viewBox="0 0 512.000000 512.000000"
 preserveAspectRatio="xMidYMid meet">

<g transform="translate(0.000000,512.000000) scale(0.100000,-0.100000)"
fill="#000000" stroke="none">
<path d="M512 5109 c-44 -13 -108 -79 -121 -126 -8 -26 -11 -670 -11 -2069 0
-2231 -3 -2111 60 -2287 91 -251 316 -476 567 -567 172 -62 129 -60 1553 -60
1424 0 1381 -2 1553 60 125 46 238 119 343 224 147 147 234 314 269 513 34
196 8 285 -99 338 -50 25 -50 25 -348 25 l-298 0 0 1903 0 1903 -22 44 c-14
26 -41 57 -66 75 l-44 30 -1651 2 c-1023 1 -1665 -2 -1685 -8z m3068 -2169 l0
-1780 -774 -2 -774 -3 -44 -30 c-61 -44 -84 -91 -93 -189 -13 -159 -73 -286
-181 -386 -75 -69 -141 -105 -240 -130 -136 -35 -249 -23 -381 41 -152 73
-273 230 -302 393 -8 41 -11 656 -11 1963 l0 1903 1400 0 1400 0 0 -1780z
m720 -2186 c0 -3 -15 -34 -32 -67 -44 -82 -139 -174 -226 -221 -128 -67 -111
-66 -1065 -66 l-859 0 21 33 c49 74 102 196 137 315 3 9 214 12 1014 12 555 0
1010 -3 1010 -6z"/>
<path d="M1212 4119 c-67 -20 -132 -113 -132 -189 0 -82 64 -167 141 -189 33
-9 268 -11 986 -9 l941 3 43 30 c117 83 117 247 0 330 l-43 30 -951 2 c-583 1
-965 -2 -985 -8z"/>
<path d="M1212 3129 c-67 -20 -132 -113 -132 -189 0 -82 64 -167 141 -189 33
-9 268 -11 986 -9 l941 3 43 30 c117 83 117 247 0 330 l-43 30 -951 2 c-583 1
-965 -2 -985 -8z"/>
<path d="M1212 2139 c-67 -20 -132 -113 -132 -189 0 -82 64 -167 141 -189 33
-9 268 -11 986 -9 l941 3 43 30 c117 83 117 247 0 330 l-43 30 -951 2 c-583 1
-965 -2 -985 -8z"/>
</g>
</svg>
